<?xml version="1.0" encoding="utf-8"?>
<!-- Generator: Adobe Illustrator 19.1.0, SVG Export Plug-In . SVG Version: 6.00 Build 0)  -->
<!DOCTYPE svg PUBLIC "-//W3C//DTD SVG 1.1//EN" "http://www.w3.org/Graphics/SVG/1.1/DTD/svg11.dtd">
<svg version="1.1" id="Layer_1" xmlns="http://www.w3.org/2000/svg" xmlns:xlink="http://www.w3.org/1999/xlink" x="0px" y="0px"
	 viewBox="0 0 128 128" enable-background="new 0 0 128 128" xml:space="preserve">
<rect fill="#2C2C2C" width="128" height="128"/>
<linearGradient id="path1948_1_" gradientUnits="userSpaceOnUse" x1="93.2342" y1="37.3458" x2="202.2505" y2="-56.4481" gradientTransform="matrix(0.5625 0 0 -0.568 -46.5838 31.8087)">
	<stop  offset="0" style="stop-color:#5C9FD3"/>
	<stop  offset="1" style="stop-color:#316A99"/>
</linearGradient>
<path id="path1948" fill="url(#path1948_1_)" d="M63.5,7.4c-4.6,0-9,0.4-12.8,1.1c-11.3,2-13.4,6.2-13.4,13.9v10.2h26.8v3.4H37.3
	H27.2c-7.8,0-14.6,4.7-16.8,13.6c-2.5,10.2-2.6,16.6,0,27.2c1.9,7.9,6.5,13.6,14.3,13.6h9.2V78.2c0-8.8,7.7-16.7,16.8-16.7h26.8
	c7.5,0,13.4-6.1,13.4-13.6V22.4c0-7.3-6.1-12.7-13.4-13.9C72.9,7.7,68.1,7.4,63.5,7.4z M49,15.6c2.8,0,5,2.3,5,5.1
	c0,2.8-2.3,5.1-5,5.1c-2.8,0-5-2.3-5-5.1C44,17.9,46.2,15.6,49,15.6z"/>
<linearGradient id="path1950_1_" gradientUnits="userSpaceOnUse" x1="244.397" y1="-113.2161" x2="205.4673" y2="-58.1373" gradientTransform="matrix(0.5625 0 0 -0.568 -46.5838 31.8087)">
	<stop  offset="0" style="stop-color:#FFD43D"/>
	<stop  offset="1" style="stop-color:#FEE875"/>
</linearGradient>
<path id="path1950" fill="url(#path1950_1_)" d="M94.2,36.1V48c0,9.2-7.8,17-16.8,17H50.7c-7.3,0-13.4,6.3-13.4,13.6v25.5
	c0,7.3,6.3,11.5,13.4,13.6c8.5,2.5,16.6,2.9,26.8,0c6.8-2,13.4-5.9,13.4-13.6V93.9H64.1v-3.4h26.8h13.4c7.8,0,10.7-5.4,13.4-13.6
	c2.8-8.4,2.7-16.5,0-27.2c-1.9-7.8-5.6-13.6-13.4-13.6H94.2z M79.2,100.7c2.8,0,5,2.3,5,5.1c0,2.8-2.3,5.1-5,5.1c-2.8,0-5-2.3-5-5.1
	C74.1,103,76.4,100.7,79.2,100.7z"/>
</svg>
